#!OML:ASF I:\golf\golf\golf 2\Subject 1\2002-09-07\Subject1.ASF
:FULLY-SPECIFIED
:DEGREES
416
root -5.80853 18.0686 -2.91397 -169.852 5.40395 -176.389
lowerback -4.96763 12.8611 16.5933
upperback -10.1597 20.473 4.30985
thorax -5.03778 10.4737 -3.41266
lowerneck -9.15126 -21.3051 -1.29523
upperneck 7.84697 -29.9795 6.03598
head 4.8954 -14.5925 -0.27238
rclavicle 1.29608e-013 1.27222e-014
rhumerus 92.2067 33.7479 -55.6238
rradius 53.2229
rwrist 4.36876
rhand -13.5928 22.2615
rfingers 7.12502
rthumb 12.5217 -7.3433
lclavicle 1.29608e-013 1.27222e-014
lhumerus 52.4698 2.81208 75.8109
lradius 67.7807
lwrist 33.0428
lhand -30.363 24.7624
lfingers 7.12502
lthumb -183.668 -125.289
rfemur 17.5109 -7.68427 18.9943
rtibia 13.7431
rfoot 15.3973 -40.0104
rtoes 32.9167
lfemur -25.6591 -17.619 -14.8437
ltibia 24.7252
lfoot 20.4239 -43.8375
ltoes 43.7696
417
root -5.79737 18.0597 -2.97215 -169.576 4.29191 -176.383
lowerback -5.34955 12.9416 16.5366
upperback -10.4095 20.5648 3.94557
thorax -4.98354 10.5314 -3.65878
lowerneck -9.26508 -21.2836 -1.76712
upperneck 7.17222 -29.7882 6.42397
head 4.81737 -14.4908 -0.0933109
rclavicle -1.90038e-013 -1.78111e-013
rhumerus 93.9503 32.9805 -54.5867
rradius 54.5181
rwrist 4.95197
rhand -14.9341 22.6921
rfingers 7.12502
rthumb 11.2283 -6.98738
lclavicle -1.90038e-013 -1.78111e-013
lhumerus 54.0359 3.96567 75.2925
lradius 68.8457
lwrist 32.6003
lhand -30.4545 23.9622
lfingers 7.12502
lthumb -183.756 -126.091
rfemur 18.1279 -7.91006 19.4087
rtibia 12.4823
rfoot 16.4327 -40.234
rtoes 33.0285
lfemur -26.1228 -17.761 -14.7766
ltibia 25.0335
lfoot 21.9588 -44.23
ltoes 44.823
418
root -5.7901 18.0536 -3.02818 -169.325 3.24836 -176.349
lowerback -5.41088 12.953 16.5761
upperback -10.8718 20.7134 3.52133
thorax -5.29409 10.5832 -4.13529
lowerneck -9.33824 -21.2719 -2.36216
upperneck 7.01568 -29.6846 6.72366
head 4.90251 -14.4287 0.0321608
rclavicle 9.38264e-014 7.4743e-014
rhumerus 95.1933 32.4108 -54.0863
rradius 55.7379
rwrist 5.43793
rhand -16.2194 23.743
rfingers 7.12502
rthumb 9.9885 -5.99995
lclavicle 9.38264e-014 7.4743e-014
lhumerus 55.0059 4.72156 73.7817
lradius 69.5141
lwrist 31.0566
lhand -31.874 22.7222
lfingers 7.12502
lthumb -185.127 -127.36
rfemur 18.8207 -8.11667 19.7995
rtibia 11.0892
rfoot 17.2759 -40.6161
rtoes 34.3308
lfemur -26.5427 -17.965 -14.6729
ltibia 25.3234
lfoot 23.3157 -44.5373
ltoes 45.6437
419
root -5.78545 18.0507 -3.08359 -169.055 2.24207 -176.263
lowerback -5.69763 12.8887 16.5787
upperback -11.3138 20.7731 3.26335
thorax -5.55849 10.6235 -4.39227
lowerneck -9.01232 -21.1887 -2.96507
upperneck 6.85795 -29.4619 6.82039
head 4.89036 -14.3354 0.169443
rclavicle -4.85035e-014 -1.68569e-013
rhumerus 96.3227 32.0407 -53.6117
rradius 56.913
rwrist 5.78882
rhand -17.6105 24.6699
rfingers 7.12502
rthumb 8.64623 -5.13306
lclavicle -4.85035e-014 -1.68569e-013
lhumerus 55.7544 5.868 72.6547
lradius 70.4566
lwrist 30.7398
lhand -32.3431 22.2812
lfingers 7.12502
lthumb -185.58 -127.812
rfemur 19.621 -9.04204 19.9695
rtibia 9.47978
rfoot 19.3863 -40.0737
rtoes 34.805
lfemur -26.9762 -18.1308 -14.5131
ltibia 25.6095
lfoot 25.1691 -44.4627
ltoes 46.9286
420
root -5.77845 18.049 -3.13949 -168.793 1.26507 -176.136
lowerback -6.05626 12.8111 16.553
upperback -11.809 20.8511 3.03123
thorax -5.86836 10.6842 -4.60645
lowerneck -8.03121 -21.0796 -3.3937
upperneck 6.21971 -29.2101 6.96258
head 4.60879 -14.265 0.415185
rclavicle 1.05753e-013 9.22361e-014
rhumerus 97.2151 31.7545 -53.3463
rradius 57.9266
rwrist 6.09576
rhand -18.9127 25.3256
rfingers 7.12502
rthumb 7.38939 -4.52536
lclavicle 1.05753e-013 9.22361e-014
lhumerus 56.4516 6.9678 71.675
lradius 71.2845
lwrist 30.5964
lhand -32.644 21.8737
lfingers 7.12502
lthumb -185.871 -128.228
rfemur 20.5522 -9.92028 20.1757
rtibia 7.60717
rfoot 21.0159 -39.8595
rtoes 35.2825
lfemur -27.3931 -18.2313 -14.2946
ltibia 25.8834
lfoot 27.1655 -44.2551
ltoes 48.273
